# xmcd
#
# Track frame offsets:
#	150
#	27480
#	48387
#	68965
#	89092
#	115100
#	140360
#	160280
#	181255
#	203012
#
# Disc length: 2974 seconds
#
# Revision: 1
# Processed by: cddbd v1.5.2PL0 Copyright (c) Steve Scherf et al.
# Submitted via: EZCDAudioConverter 8.0.2.1
#
DISCID=8b0b9c0a
DTITLE=Chế Linh - Hát Cho Người Tình Phụ 2
DYEAR=1998
DGENRE=Miscellaneous
TTITLE0=Nửa đời yêu anh
TTITLE1=Tuyệt tình
TTITLE2=Tình buồn
TTITLE3=Hát Cho Người Tình Phụ
TTITLE4=Lạy trời con được bình yên
TTITLE5=Bài buồn cho em
TTITLE6=Anh đến thăm em đêm 30
TTITLE7=Bài không tên cuối cùng
TTITLE8=Sang ngang
TTITLE9=Bây giờ tháng mấy
EXTD=
EXTT0=
EXTT1=
EXTT2=
EXTT3=
EXTT4=
EXTT5=
EXTT6=
EXTT7=
EXTT8=
EXTT9=
PLAYORDER=
